<?xml version="1.0" standalone="no"?>
<!DOCTYPE svg PUBLIC "-//W3C//DTD SVG 1.1//EN" "http://www.w3.org/Graphics/SVG/1.1/DTD/svg11.dtd" >
<!--
2013-9-30: Created.
-->
<svg>
<metadata>
Created by iconfont
</metadata>
<defs>

<font id="iconfont" horiz-adv-x="1024" >
  <font-face
    font-family="iconfont"
    font-weight="500"
    font-stretch="normal"
    units-per-em="1024"
    ascent="896"
    descent="-128"
  />
    <missing-glyph />
    
    <glyph glyph-name="index" unicode="&#58907;" d="M569.8048 874.7264a82.0736 82.0736 0 0 1-110.2848 0L13.568 451.2768a41.1392 41.1392 0 0 1 55.0912-61.1072l7.0912 6.7328V-45.05600000000004a82.2784 82.2784 0 0 1 82.2784-82.3808h239.4368v247.7056a57.9328 57.9328 0 0 0 57.9584 58.0096h112.6656a57.9328 57.9328 0 0 0 57.9584-58.0096v-247.7056h245.12a82.2784 82.2784 0 0 1 82.304 82.3808V391.5008c18.2784-16.5376 44.2112-15.2832 59.4176 1.664a41.1392 41.1392 0 0 1-2.9696 58.112L569.8048 874.7008z"  horiz-adv-x="1024" />

    
    <glyph glyph-name="shujuchaxun" unicode="&#58905;" d="M1036.736626-109.822485a61.828282 61.828282 0 0 0-87.42519 0l-131.137785 131.199613a60.900857 60.900857 0 0 0-13.787707 21.516242A177.632653 177.632653 0 0 0 741.939379 30.404057a185.484845 185.484845 0 1 0 185.484845 185.484845 181.404178 181.404178 0 0 0-31.346939-100.841927 56.387393 56.387393 0 0 0 9.459727-6.182828l131.137786-131.199614a61.828282 61.828282 0 0 0 0.061828-87.487018zM741.939379 339.545466a123.656563 123.656563 0 1 1 123.656564-123.656564 123.656563 123.656563 0 0 1-123.656564 123.656564z m0 123.656563a245.643763 245.643763 0 0 1-185.484845-85.323029V896c273.157348 0 432.797971-221.468905 432.797972-494.626253a649.753411 649.753411 0 0 0-11.190919-115.804371A246.571187 246.571187 0 0 1 741.939379 463.202029zM0 339.545466h494.626253v-432.797972c-471.68796-14.776959-494.626253 432.797971-494.626253 432.797972z m487.763314 81.489675L253.495955 654.869702 151.355633 756.948195a491.967637 491.967637 0 0 0 47.422292 40.064726l98.430625-98.430624L494.626253 501.597392V401.373747h-26.524333zM251.702934 831.9459a482.693395 482.693395 0 0 0 59.107838 28.379182l74.193938-74.193938L494.626253 676.5096v-87.42519L341.168458 742.542205zM377.152518 881.408526A496.790243 496.790243 0 0 0 494.626253 896v-132.06521L428.593648 829.967395zM419.999517 401.373747H332.574327L166.318078 567.629996l-92.742423 92.742423a495.368192 495.368192 0 0 0 35.98406 51.502958L210.216157 611.589905zM245.149137 401.373747H157.662118L78.831059 480.204806l-58.984181 58.984181a491.287526 491.287526 0 0 0 23.494747 63.992271l79.202029-79.263857zM70.298756 401.373747H0a496.852071 496.852071 0 0 0 4.822606 65.414322l30.295858-30.295858z m713.189229-428.593648A410.354305 410.354305 0 0 0 556.454534-93.252506v147.15131A245.643763 245.643763 0 0 1 741.939379-31.424224a241.748581 241.748581 0 0 1 41.486777 4.204323z"  horiz-adv-x="1054" />

    
    <glyph glyph-name="quanxian" unicode="&#58985;" d="M881.536 761.088L514.432 895.104 512 896 144 761.6c-28.672-3.712-50.304-28.288-50.304-57.216V218.88c0-34.432 68.352-118.784 131.712-177.408 76.288-70.656 244.864-151.168 279.04-167.168 1.92-0.768 3.712-1.408 5.76-1.92l2.048-0.384 1.792 0.512c1.792 0.512 3.712 1.024 5.632 1.92 1.92 0.896 195.328 89.6 278.912 167.04 63.36 58.496 131.712 143.104 131.712 177.408V704.256c0 28.8-21.632 53.376-48.768 56.832z m-25.984-536.704c-6.656-13.312-39.552-65.152-107.648-128.128-57.344-52.992-182.528-116.736-233.472-141.568L512-46.336l-2.048 0.896c-51.2 24.96-176.384 88.576-233.728 141.696-68.096 62.976-100.992 114.816-107.648 128.128v466.56L512 816.256l343.552-125.312v-466.56zM370.048 510.464c0-66.048 45.312-121.472 106.496-137.216v-236.032c0-17.792 15.872-32.384 35.456-32.384 19.584 0 35.456 14.464 35.456 32.384V241.024H620.8c17.792 0 32.256 15.872 32.256 35.456 0 19.584-14.464 35.456-32.256 35.456h-73.344v61.312c61.056 15.744 106.496 71.296 106.496 137.216 0 78.336-63.616 141.952-141.952 141.952-78.336 0.128-141.952-63.744-141.952-141.952z m223.104 0c0-44.672-36.352-81.152-81.152-81.152-44.672 0-81.152 36.352-81.152 81.152 0 44.672 36.352 81.152 81.152 81.152 44.672-0.128 81.152-36.48 81.152-81.152z"  horiz-adv-x="1024" />

    
    <glyph glyph-name="shujuchaxun-menu" unicode="&#58906;" d="M1000-45.24800000000005l-84.096 85.632a263.04 263.04 0 0 1 44.352 146.752C960.256 331.20000000000005 845.568 448 704.128 448S448 331.20000000000005 448 187.13599999999997c0-144 114.688-260.864 256.128-260.864 61.632 0 118.208 22.208 162.368 59.136l81.856-83.328c21.12-13.568 38.4-13.568 51.648 0 13.312 13.568 13.312 31.104 0 52.672z m-295.872 46.016a180.16 180.16 0 0 0-129.408 54.592 186.944 186.944 0 0 0-53.632 131.84c0 49.728 19.072 96.512 53.632 131.776a180.16 180.16 0 0 0 129.408 54.592c48.896 0 94.848-19.392 129.408-54.592 34.56-35.2 53.632-82.048 53.632-131.84s-19.072-96.64-53.632-131.84-80.512-54.528-129.408-54.528zM64 736h0.576v-736.512h345.6A32 32 0 1 0 416-64H0V736a32 32 0 0 0 64 0zM896 448a320 320 0 0 1-485.376-384H192a64 64 0 0 0-64 64V832a64 64 0 0 0 64 64h640a64 64 0 0 0 64-64v-384z m-240.064 320L498.304 638.784 402.112 693.12l-0.128 0.128H401.92L256 558.912 307.072 512l105.6 97.152 93.44-52.736 0.128-0.064L704 718.4 655.936 768z"  horiz-adv-x="1024" />

    
    <glyph glyph-name="yuanshuju" unicode="&#59170;" d="M850.944 153.60000000000002c44.544 65.536 70.656 144.896 70.656 230.4 0 75.264-20.48 149.504-60.416 214.016 22.528 10.24 40.96 28.16 51.2 51.2 23.552 51.712 0.512 112.128-51.2 135.68s-112.128 0.512-135.68-51.2c-50.688 30.72-107.008 50.688-165.888 57.344-224.768 26.112-428.032-134.656-454.656-358.912-27.648-8.704-48.128-31.744-52.736-60.416-7.168-41.984 20.992-81.408 62.464-88.576 11.776-46.08 31.232-89.6 57.856-129.024 126.976-187.392 381.952-236.032 569.344-108.544 29.184-26.112 73.216-26.112 102.4 0 32.256 28.16 34.816 76.288 6.656 108.032zM218.624 589.8240000000001c113.664 162.304 336.896 201.728 499.2 88.064 2.048-13.312 6.144-26.624 13.312-38.4l-41.472-41.472c-48.128 38.912-109.056 62.464-175.616 62.464-153.6 0-277.504-123.904-278.528-276.48h-35.328c-7.168 20.992-23.552 37.376-44.032 45.568 7.68 57.856 29.184 112.64 62.464 160.256z m499.2-499.2c-34.304-24.064-72.704-41.984-113.152-52.736-191.488-51.2-388.096 62.464-439.296 253.44 15.872 9.216 28.672 23.552 34.816 41.472h39.424c23.552-130.048 137.216-228.864 273.92-228.864 67.584 0 129.536 24.064 177.664 64.512l32.768-32.768c-6.144-14.336-8.704-29.696-6.144-45.056z m87.552 87.552c-15.36 2.56-31.232 0-45.056-6.656l-32.768 32.768c39.936 48.128 64 110.08 64 177.664 0 68.608-24.576 131.072-66.048 179.712l40.96 40.96c11.776-7.168 24.576-11.264 38.4-13.312C846.336 531.456 870.4 460.8 870.4 384c0-73.728-22.528-145.408-65.024-205.824z"  horiz-adv-x="1024" />

    
    <glyph glyph-name="ditufuwuguanli" unicode="&#59022;" d="M358.016 537.792c32.96-100.032 110.336-238.592 231.744-423.68a24.96 24.96 0 0 1 41.6 0c49.728 75.84 61.376 115.648 96.256 177.28v-246.4L296.32-108.992V507.008l61.632 30.72z m506.24 92.608l109.824-61.952c19.072-10.624 30.848-14.72 30.848-30.72v-523.648c0-17.728-9.92-25.088-30.848-30.784-25.792-7.04-46.528-9.92-61.568 0l-123.2 61.568-1.28 358.912c32 63.296 72.128 157.312 76.16 226.624zM234.752 537.792v-646.784L49.92 14.208C24.576 28.16 19.2 36.48 19.2 53.44v515.2c0 17.28 9.6 31.36 24.96 40a49.92 49.92 0 0 0 49.6-0.64L234.88 537.728z m396.672-302.976a24.768 24.768 0 0 0-20.928-11.2 24.832 24.832 0 0 0-20.8 11.2c-133.952 207.616-200.96 349.248-200.96 425.152 0 119.616 93.184 216.512 215.616 216.512 122.432 0 215.616-96 215.616-215.616 0-75.776-54.72-218.432-188.544-426.048z m-27.2 302.976a123.264 123.264 0 0 1 0 246.4 123.2 123.2 0 1 1 0-246.4z"  horiz-adv-x="1024" />

    
    <glyph glyph-name="xiazai" unicode="&#58904;" d="M895.778 33.713c0-18.531-15.023-33.554-33.554-33.554h-700.87c-18.53 0-33.554 15.023-33.554 33.554 0 18.531 15.023 33.554 33.554 33.554h700.87c18.532 0 33.554-15.023 33.554-33.554z m-384.063 94.621c-18.531 0-33.554 15.023-33.554 33.554V734.026c0 18.532 15.023 33.554 33.554 33.554 18.531 0 33.554-15.023 33.554-33.554v-572.138c0-18.53-15.023-33.554-33.554-33.554z m23.726 10.046c-13.103-13.104-34.349-13.104-47.452 0l-251.83 251.83c-13.103 13.103-13.103 34.349 0 47.452 13.104 13.104 34.35 13.104 47.453 0l251.83-251.83c13.103-13.103 13.103-34.348 0-47.452z m-47.452 0c-13.104 13.104-13.104 34.35 0 47.454l251.83 251.83c13.103 13.103 34.348 13.103 47.452 0 13.103-13.104 13.103-34.35 0-47.454L535.44 138.38c-13.104-13.104-34.349-13.104-47.452 0z"  horiz-adv-x="1024" />

    
    <glyph glyph-name="tiqufenxi" unicode="&#58943;" d="M879.771 370.533c-10.699 0-19.371-8.673-19.371-19.37v-344.745c0-13.726-11.167-24.894-24.894-24.894H198.998c-13.728 0-24.898 11.168-24.898 24.894V351.162c0 10.698-8.672 19.371-19.371 19.371s-19.371-8.673-19.371-19.37v-344.745c0-35.089 28.548-63.636 63.64-63.636h636.508c35.09 0 63.636 28.546 63.636 63.636V351.162c0 10.698-8.672 19.371-19.37 19.371zM219.763 226.614c1.138 0.386 115.823 38.213 290.452 8.798 82.594-13.912 135.615-18.844 177.237-18.844 40.548 0 70.28 4.682 105.987 10.306 9.613 1.514 19.553 3.08 30.313 4.65 10.587 1.543 17.917 11.376 16.373 21.963-1.543 10.586-11.37 17.916-21.963 16.372-10.98-1.6-21.031-3.183-30.751-4.714-71.048-11.192-113.93-17.944-270.762 8.471-184.152 31.016-304.291-8.606-309.316-10.308-10.133-3.432-15.564-14.43-12.132-24.561 3.433-10.132 14.427-15.569 24.562-12.133zM818.162 128.577c-10.98-1.6-21.032-3.184-30.753-4.716-71.046-11.189-113.925-17.944-270.76 8.467-184.152 31.016-304.292-8.602-309.316-10.302-10.133-3.432-15.564-14.43-12.132-24.56 3.432-10.134 14.43-15.565 24.561-12.134 1.138 0.385 115.824 38.207 290.453 8.793 82.593-13.909 135.607-18.841 177.228-18.84 40.548 0 70.287 4.683 105.994 10.307 9.614 1.514 19.554 3.08 30.315 4.65 10.587 1.544 17.917 11.377 16.373 21.963-1.543 10.584-11.37 17.915-21.963 16.372zM328.235 633.762c4.91 0 9.822 1.856 13.596 5.574l148.665 146.522v-414.804c0-10.699 8.673-19.371 19.371-19.371 10.7 0 19.372 8.672 19.372 19.371V787.761l148.665-146.497a19.306 19.306 0 0 1 13.595-5.573 19.312 19.312 0 0 1 13.798 5.775c7.51 7.62 7.42 19.885-0.2 27.394L524.873 846.454c-3.886 3.83-8.981 5.67-14.038 5.556-5.06 0.119-10.161-1.723-14.052-5.557L314.636 666.93c-7.62-7.51-7.709-19.775-0.199-27.395a19.314 19.314 0 0 1 13.798-5.774z"  horiz-adv-x="1024" />

    
    <glyph glyph-name="huanchongqufenxi" unicode="&#58902;" d="M512 896a512 512 0 1 1 512-512A512 512 0 0 1 512 896z m301.568-210.432a32.768 32.768 0 0 0 0-46.592l-105.984-105.984a32.768 32.768 0 0 0-46.592 46.592L768 685.568a32.768 32.768 0 0 0 45.568 0z m20.48-210.944l-29.696-8.704a307.2 307.2 0 0 1-27.648 66.048l26.624 15.36a337.408 337.408 0 0 0 30.72-72.192zM601.088 706.56a337.408 337.408 0 0 0 73.216-30.208l-14.848-26.624a304.128 304.128 0 0 1-66.56 27.136z m36.352-322.56A124.928 124.928 0 1 0 512 508.928 124.928 124.928 0 0 0 636.928 384zM477.184 778.24a32.768 32.768 0 0 0 65.536 0v-149.504a32.768 32.768 0 0 0-65.536 0zM418.304 706.048l8.192-29.696A307.2 307.2 0 0 1 358.4 649.216l-13.312 26.624a335.36 335.36 0 0 0 73.216 30.208zM204.8 685.568a32.768 32.768 0 0 0 46.592 0L358.4 579.584a32.768 32.768 0 0 0-46.592-46.592L204.8 640a32.768 32.768 0 0 0 0 45.568z m9.728-138.752l26.624-14.848a307.2 307.2 0 0 1-27.648-66.56l-29.696 8.192a337.92 337.92 0 0 0 32.768 73.216z m-102.4-197.632a32.768 32.768 0 1 0 0 65.536h151.552a32.768 32.768 0 0 0 0-65.536z m102.4-51.2a307.2 307.2 0 0 1 27.136-66.56l-26.624-14.848a337.92 337.92 0 0 0-30.208 73.216zM204.8 76.8a32.768 32.768 0 0 0 0 46.592L312.832 230.4a32.768 32.768 0 1 0 46.592-46.592L253.44 76.8A32.768 32.768 0 0 0 204.8 76.8z m210.944-20.48a335.36 335.36 0 0 0-72.704 30.72l15.36 28.672a307.2 307.2 0 0 1 66.048-27.648z m125.44-72.192a32.768 32.768 0 0 0-65.536 0v151.552a32.768 32.768 0 1 0 65.536 0z m57.344 71.68l-8.192 29.696a307.2 307.2 0 0 1 66.56 27.136l14.848-26.624a335.872 335.872 0 0 0-71.68-28.16z m215.04 20.992a32.768 32.768 0 0 0-45.568 0l-105.984 105.984a32.768 32.768 0 1 0 46.592 46.592l105.984-105.984a32.768 32.768 0 0 0-1.024-46.592z m-10.752 137.216l-26.624 15.36a307.2 307.2 0 0 1 28.16 66.048l29.696-8.704a335.872 335.872 0 0 0-31.232-70.656z m102.4 133.632h-148.48a32.768 32.768 0 1 0 0 65.536h149.504a32.768 32.768 0 1 0 0-65.536z"  horiz-adv-x="1024" />

    
    <glyph glyph-name="huanchongqufenxi1" unicode="&#58951;" d="M979.781818 515.165091a253.067636 253.067636 0 0 1-9.262545 85.876364c-16.989091 59.857455-53.946182 112.174545-109.707637 155.648l-1.117091 0.837818-2.466909 1.582545a257.954909 257.954909 0 0 1-144.104727 43.52c-60.695273 0-123.810909-20.340364-187.857454-60.509091-19.549091 13.963636-54.272 30.813091-107.752728 30.813091-50.874182 0-108.450909-15.592727-171.287272-46.126545C222.114909 720.058182 70.935273 673.652364 18.525091 547.84c-32.209455-77.265455-20.200727-166.586182 35.560727-265.728-9.216-27.834182-29.509818-93.556364-3.397818-142.289455 20.526545-38.306909 97.745455-163.374545 227.328-163.374545 9.914182 0 20.107636 0.744727 30.114909 2.234182l1.489455 0.279273 9.681454 1.954909c56.785455 11.124364 72.145455 17.221818 236.078546 152.948363 2.327273-1.117091 4.747636-2.373818 7.214545-3.723636 20.666182-10.705455 48.965818-25.367273 90.763636-25.367273 5.026909 0 10.146909 0.232727 15.36 0.651637l1.722182 0.186181 5.306182 1.070546c99.653818 20.293818 207.220364 47.336727 249.530182 93.230545 4.468364 4.840727 10.053818 10.333091 16.058182 16.151273 25.181091 24.576 59.717818 58.181818 74.752 108.264727a188.322909 188.322909 0 0 1 3.909818 88.715637c-5.818182 31.930182-19.316364 66.187636-40.168727 102.120727z m-13.777454-124.928h-211.130182c-11.031273 8.657455-21.783273 17.687273-32.209455 27.089454a11.496727 11.496727 0 0 0-2.932363 6.981819H958.836364c3.723636-12.148364 6.050909-23.505455 7.168-34.071273z m-14.801455 55.296H723.781818c4.002909 10.984727 10.379636 23.319273 16.570182 34.117818h194.234182c6.609455-12.008727 12.101818-23.365818 16.570182-34.117818z m-28.578909 67.956364a33.512727 33.512727 0 0 1 0.744727-12.613819h-172.730182a48.314182 48.314182 0 0 1-4.561454 34.071273h177.431273a184.785455 184.785455 0 0 0-0.930909-21.410909z m-0.698182 42.728727h-193.442909c-3.630545 3.351273-6.795636 6.050909-8.657454 8.331636-12.101818 14.568727-58.554182 17.128727-58.554182 17.128727l-30.72-25.460363H439.994182l0.930909 24.482909s-15.918545 6.330182-18.292364 9.634909h491.799273c3.816727-12.194909 6.144-23.645091 7.447273-34.117818z m-401.826909-110.685091H435.758545l1.303273 34.117818h101.003637l-26.903273-22.341818 8.936727-11.776z m15.965091-21.224727l25.693091-34.071273H433.617455l1.303272 34.071273h101.143273z m41.565091-55.296l25.739636-34.117819H431.429818l1.303273 34.071273h144.896z m-13.963636 131.909818H437.899636l1.349819 34.071273h165.701818l-41.192728-34.071273z m149.410909 244.829091c33.047273 0.093091 65.629091-7.959273 94.813091-23.505455h-199.214546c35.933091 15.639273 70.888727 23.505455 104.494546 23.505455h-0.046546z m-380.229819-44.730182h151.179637c10.333091-5.725091 15.592727-11.170909 16.756363-12.427636l15.453091-21.038546 22.667637 15.546182c9.495273 6.469818 18.897455 12.427636 28.253091 17.92h271.918545c12.986182-11.264 24.110545-22.667636 33.466182-34.071273H245.434182c10.845091 3.723636 17.594182 5.585455 17.92 5.585455 0 0 49.152 21.876364 69.492363 28.485818zM195.258182 645.678545h693.015273c7.586909-11.589818 13.637818-23.04 18.478545-34.071272H140.288c17.221818 13.032727 35.653818 24.436364 54.970182 34.071272z m-79.592727-55.38909h296.634181c-18.152727-4.002909-37.655273-19.409455-53.248-34.071273h-271.825454c8.238545 12.334545 17.780364 23.738182 28.439273 34.117818z m222.347636-55.296a76.8 76.8 0 0 0-8.517818-8.285091c-3.584-2.141091-30.72 3.025455-55.156364 8.285091h63.674182z m-85.504-221.370182l2.327273-34.071273H112.500364a27.741091 27.741091 0 0 1-2.56 19.456l-8.378182 14.661818h150.900363zM106.077091 258.327273h150.155636l1.861818-27.834182s2.653091-2.606545 6.516364-6.237091H97.419636c2.420364 12.986182 5.911273 25.134545 8.704 34.071273z m-31.045818 276.666182h148.340363l-23.179636-20.38691v-13.730909H62.743273a334.661818 334.661818 0 0 0 12.288 34.117819z m-15.965091-55.342546h141.172363v-34.071273H58.321455a193.629091 193.629091 0 0 0 0.744727 34.071273z m147.223273-55.342545c6.609455-9.029818 17.314909-23.738182 24.203636-34.071273H68.654545a264.890182 264.890182 0 0 0-7.912727 34.071273h145.547637z m-130.46691-55.296h164.538182c3.444364-11.124364 7.68-26.484364 9.774546-34.117819H90.624a394.472727 394.472727 0 0 0-14.801455 34.071273z m232.541091-332.334546l-9.309091-2.373818a108.218182 108.218182 0 0 0-52.503272 2.653091h62.696727l-0.930909-0.279273zM365.614545 58.181818H196.608a226.304 226.304 0 0 0-41.565091 34.117818h258.513455c-20.48-15.825455-35.607273-26.530909-47.941819-34.117818z m74.938182 55.342546H136.238545a352.488727 352.488727 0 0 0-24.250181 34.117818h370.641454c-15.732364-12.939636-29.696-24.203636-42.077091-34.117818z m343.831273 77.917091a1132.450909 1132.450909 0 0 0-89.181091-22.574546h-80.989091c-9.076364 3.444364-17.314909 7.68-25.413818 11.869091a169.797818 169.797818 0 0 1-30.301091 13.312l-14.568727 4.328727-11.636364-9.681454-23.877818-19.828364h-408.669091c-4.468364 9.634909-5.678545 21.690182-4.980364 34.117818H292.305455c2.001455-0.837818 3.677091-1.163636 4.840727-0.744727l2.234182 0.744727h519.447272c-11.357091-4.235636-22.853818-8.098909-34.443636-11.543272z m117.294545 65.442909c-6.516364-6.423273-12.706909-12.427636-18.199272-18.385455-3.258182-3.537455-8.890182-8.378182-18.711273-14.336H336.011636a27.182545 27.182545 0 0 1 2.932364 3.630546c4.375273 6.516364 7.912727 18.944 10.286545 30.533818h553.89091l-1.44291-1.442909z m22.43491 22.667636H352.349091l0.046545 2.094545c0 9.402182 29.602909 6.656 48.500364 12.101819 18.897455 5.399273 29.370182 10.938182 29.370182 10.938181l0.372363 8.983273h188.695273l17.594182-23.458909c10.193455-2.094545 55.714909 11.077818 97.093818 23.458909h215.877818a187.904 187.904 0 0 0-25.786181-34.117818z m35.607272 55.342545h-161.792c16.942545 11.031273-0.930909 21.829818-0.930909 21.829819l-15.592727 12.288h185.064727c-0.605091-11.636364-2.885818-23.133091-6.749091-34.117819z"  horiz-adv-x="1024" />

    
    <glyph glyph-name="zhandianlinjinfenxi" unicode="&#59917;" d="M321.7 550.6H703c15 0 27.2 12.3 27.2 27.2V741.3c0 15-12.3 27.2-27.2 27.2H321.7c-15 0-27.2-12.3-27.2-27.2v-163.4c-0.1-15.1 12.2-27.3 27.2-27.3zM926 223.7h-58.3V353.8c0 34.1-27.7 61.8-61.8 61.8H539.6v135h-54.5v-135H218.8c-34.1 0-61.8-27.7-61.8-61.8v-130.1H98.7c-12.3 0-22.2-10-22.2-22.3V28c0-12.2 10-22.2 22.2-22.2h173.4c12.3 0 22.3 10 22.3 22.2V201.4c0 12.3-10 22.2-22.2 22.3h-58.3V353.8c0 2.7 2.2 4.9 4.9 4.9h266.3v-135h-59.5c-12.3 0-22.2-10-22.2-22.3V28c0-12.2 10-22.2 22.2-22.2H599c12.3 0 22.3 10 22.3 22.2V201.4c0 12.3-10 22.2-22.2 22.3h-59.5v135h266.3c2.7 0 4.9-2.2 4.9-4.9v-130.1h-58.3c-12.3 0-22.2-10-22.2-22.3V28c0-12.2 10-22.2 22.2-22.2h173.4c12.3 0 22.3 10 22.3 22.2V201.4c0 12.3-10 22.3-22.2 22.3z m0 0"  horiz-adv-x="1024" />

    
    <glyph glyph-name="zhagefenxi" unicode="&#60581;" d="M112 784m32 0l736 0q32 0 32-32l0-736q0-32-32-32l-736 0q-32 0-32 32l0 736q0 32 32 32ZM704 160a32 32 0 0 1 32 32h160v-32h-160v-160h-32v160z m-160 0v-160h-32v160h32z m-224 0v-160H288v160H128v32h160a32 32 0 0 1 32-32z m-32 192H128v32h160v-32z m0 224H128V608h160V768h32v-160a32 32 0 0 1-32-32z m224 32V768h32v-160h-32z m192 0V768h32v-160h160v-32h-160a32 32 0 0 1-32 32z m32-224h160v-32h-160v32zM320 608h384a32 32 0 0 0 32-32v-384a32 32 0 0 0-32-32H320a32 32 0 0 0-32 32V576a32 32 0 0 0 32 32z m0-32v-384h384V576H320z m128-96h128a32 32 0 0 0 32-32v-128a32 32 0 0 0-32-32h-128a32 32 0 0 0-32 32v128a32 32 0 0 0 32 32z m0-32v-128h128v128h-128zM128 800h768a32 32 0 0 0 32-32v-768a32 32 0 0 0-32-32H128a32 32 0 0 0-32 32V768a32 32 0 0 0 32 32z m0-32v-768h768V768H128z"  horiz-adv-x="1024" />

    
    <glyph glyph-name="suoxiao1" unicode="&#58899;" d="M867.456 0.768c-8.192 0.128-15.872 3.456-21.632 9.344L707.712 148.224l-5.632-4.48c-60.16-48.64-135.936-75.392-213.248-75.392h-0.384c-67.84 0-133.376 19.84-189.696 57.6-56.32 37.632-99.84 90.624-125.824 153.216-25.984 62.592-32.64 130.816-19.456 197.248 13.184 66.432 45.568 126.976 93.44 174.848 32.256 32.256 69.888 57.216 112 74.496 41.344 16.896 84.992 25.472 129.536 25.472 45.056 0 88.96-8.704 130.56-25.984 62.592-25.984 115.584-69.376 153.216-125.824 37.632-56.32 57.6-121.984 57.472-189.696 0.128-77.184-26.496-152.832-74.88-212.992l-4.48-5.632L888.32 52.992c12.16-11.904 12.544-31.36 0.768-43.648-5.76-5.632-13.44-8.704-21.504-8.704l-0.128 0.128zM207.744 413.824v-3.968c0-154.88 125.952-280.832 280.704-280.832s280.704 125.952 280.704 280.704-125.952 280.704-280.704 280.704c-151.296 0-276.352-121.984-280.576-272.768l-0.128-3.84zM522.752 384.128H362.112c-14.72 0-26.624 11.52-26.624 25.6 0.256 14.208 12.032 25.728 26.24 25.728h161.024M514.048 435.456h101.12c14.208 0 25.856-11.52 26.112-25.728-0.256-14.208-12.032-25.728-26.24-25.728h-101.12"  horiz-adv-x="1024" />

    
    <glyph glyph-name="ceju" unicode="&#58896;" d="M776.8 163.52L292.48 662.4V896H0v-294.24h232.64L731.2 88.32V-128H1024V163.52zM98.72 800h98.4v-99.2H98.72z m827.36-829.92h-97.44v87.84l10.4 10.4h87.04z m0 0"  horiz-adv-x="1024" />

    
    <glyph glyph-name="mianji" unicode="&#58897;" d="M947.934 640.36c16.063 0 29.06 12.999 29.06 29.06V822.985c0 16.063-12.997 29.06-29.06 29.06h-153.6c-16.035 0-29.06-12.997-29.06-29.06v-47.734h-94.338a29.189 29.189 0 0 1-8.865 0H258.728V822.984c0 16.063-13.027 29.06-29.062 29.06H76.068c-16.064 0-29.063-12.997-29.063-29.06v-153.563c0-16.063 12.999-29.06 29.063-29.06h47.737v-506.582H76.068c-16.064 0-29.063-12.997-29.063-29.06v-153.563c0-16.063 12.999-29.06 29.063-29.06h153.598c16.035 0 29.062 12.997 29.062 29.06V-1.11h506.545v-47.735c0-16.063 13.026-29.06 29.06-29.06h153.6c16.063 0 29.06 12.997 29.06 29.06V104.718c0 16.063-12.997 29.06-29.06 29.06h-47.738v407.64c0.05 0.984 0.05 1.97 0 2.955V640.36h47.739zM823.397 793.924h95.473v-95.442h-95.473v95.442zM181.93 436.08a29.207 29.207 0 0 1 4.825 3.89l277.169 277.16h132.079L181.929 303.07V436.079z m-76.8 357.844h95.474v-46.628c-0.014-0.367-0.028-0.735-0.028-1.106s0.015-0.739 0.028-1.106v-46.602H105.13v95.442z m124.537-153.562c16.035 0 29.062 12.998 29.062 29.06v47.707h123.003L181.93 517.334V640.36h47.737z m-47.737-419.477l496.265 496.244h87.08v-35.607L217.51 133.78h-35.581v87.105z m-76.8-240.668v95.441h95.474v-46.6c-0.014-0.367-0.028-0.736-0.028-1.106s0.015-0.739 0.028-1.106v-46.628H105.13zM842.072 342.25L563.785 63.977a29.044 29.044 0 0 1-5.148-6.965H426.366L842.07 472.7v-130.449z m76.8-362.035h-95.474v95.441h95.473v-95.441zM794.333 133.779c-16.035 0-29.06-12.997-29.06-29.06v-47.706H639.011l203.061 203.051V133.78h-47.738z m47.737 421.109L344.174 57.012h-85.446v35.795L806.304 640.36h35.767v-85.472z"  horiz-adv-x="1024" />

    
    <glyph glyph-name="fangda" unicode="&#58903;" d="M471.04 120.832c-167.936 0-304.128 135.850667-304.128 304.128 0 167.594667 136.192 303.786667 304.128 303.786667 167.936 0 304.128-135.850667 304.128-304.128 0-167.594667-136.192-303.786667-304.128-303.786667z m291.157333 84.309333c115.370667 152.917333 92.501333 368.981333-51.882666 494.592-144.725333 125.952-361.472 118.101333-497.322667-17.408-135.509333-135.509333-143.018667-352.597333-17.408-497.322666 125.952-144.725333 341.674667-167.253333 494.592-51.882667m0.341333 0.341333l139.605334-139.605333c19.797333-19.797333 51.882667-19.797333 71.68 0 19.797333 19.797333 19.797333 51.882667 0 71.68l-139.605334 139.605333M602.794667 454.997333H339.285333c-21.504 0-30.378667-8.874667-30.378666-30.378666 0-21.504 8.874667-30.378667 30.378666-30.378667h263.509334c21.504 0 30.378667 8.874667 30.378666 30.378667 0.341333 21.845333-8.874667 30.378667-30.378666 30.378666z m0 0M440.661333 556.373333v-263.509333c0-21.504 8.874667-30.378667 30.378667-30.378667 21.504 0 30.378667 8.874667 30.378667 30.378667V556.373333c0 21.504-8.874667 30.378667-30.378667 30.378667-21.845333 0-30.378667-9.216-30.378667-30.378667z m0 0"  horiz-adv-x="1024" />

    
    <glyph glyph-name="pingyi" unicode="&#58900;" d="M1012.352 413.44L860.16 565.696a39.552 39.552 0 0 1-55.872-55.808l84.736-84.736h-338.88V761.408l84.352-84.352a39.552 39.552 0 0 1 55.872 55.872l-151.68 151.68-0.448 0.384a8 8 0 0 1-1.152 0.96c0 0.128-0.128 0.256-0.384 0.448l-1.024 0.768-0.32 0.256a4.416 4.416 0 0 1-1.28 0.896l-0.256 0.128-1.28 0.96a39.04 39.04 0 0 1-17.92 6.4h-0.256L512.64 896h-3.968l-1.728-0.128h-0.256a39.04 39.04 0 0 1-17.856-6.4l-1.344-0.96-0.256-0.128c-0.384-0.256-0.768-0.64-1.28-0.896-0.064-0.128-0.192-0.256-0.32-0.256-0.384-0.192-0.768-0.64-0.96-0.832l-0.512-0.384-1.152-0.96-0.32-0.384L330.88 732.544a39.552 39.552 0 0 1 55.68-55.872l84.672 84.608v-336.064h-336.64l84.736 84.672a39.552 39.552 0 0 1-55.872 55.872L11.712 413.824a39.424 39.424 0 0 1 0-55.68l151.04-151.104a39.424 39.424 0 1 1 55.808 55.872l-83.2 83.328h336v-336.896l-85.952 85.952a39.552 39.552 0 0 1-55.872-55.872L482.88-113.92a39.424 39.424 0 0 1 55.68 0L690.88 38.4a39.552 39.552 0 0 1-55.808 55.872l-84.864-84.8V346.24h339.2l-84.928-84.736a39.552 39.552 0 0 1 55.744-55.872l151.936 152a39.424 39.424 0 0 1 0.128 55.872z"  horiz-adv-x="1024" />

    
    <glyph glyph-name="shou" unicode="&#58901;" d="M868.375814 687.627907a100.375814 100.375814 0 0 1-50.604651-13.633488V738.232558a101.209302 101.209302 0 0 1-157.529303 84.063256 101.209302 101.209302 0 0 1-190.987907 0A101.209302 101.209302 0 0 1 311.724651 738.232558v-373.164651L243.616744 483.185116a98.530233 98.530233 0 0 1-60.666046 48.223256 94.422326 94.422326 0 0 1-74.001861-10.24 107.936744 107.936744 0 0 1-38.995349-138.775814c1.547907-3.095814 33.815814-69.23907 134.608372-270.764651a534.861395 534.861395 0 0 1 154.790698-201.644651 147.110698 147.110698 0 0 1 78.943256-32.029768h253.023256a191.940465 191.940465 0 0 1 119.069767 41.674419 316.487442 316.487442 0 0 1 87.04 111.508837 864.625116 864.625116 0 0 1 72.275349 378.225116V586.418605a101.209302 101.209302 0 0 1-101.209302 101.209302z m50.604651-278.325581a815.211163 815.211163 0 0 0-66.917209-355.542326 193.369302 193.369302 0 0 0-160.744186-125.023256H438.772093a119.486512 119.486512 0 0 0-55.426977 26.552558A492.710698 492.710698 0 0 0 249.808372 133.953488C147.229767 339.408372 115.735814 404.003721 115.43814 404.59907a57.213023 57.213023 0 0 0 19.706046 72.811163 44.293953 44.293953 0 0 0 34.649302 4.822325 48.40186 48.40186 0 0 0 29.767442-23.813953l0.297675-0.476279 79.00279-136.930233c16.133953-29.767442 34.292093-41.674419 53.99814-36.911628s29.767442 24.766512 29.767442 58.522791V738.232558a50.604651 50.604651 0 1 0 101.209302 0v-328.930232a25.302326 25.302326 0 1 1 50.604651 0V788.837209a50.604651 50.604651 0 0 0 101.209303 0v-379.534883a25.302326 25.302326 0 1 1 50.604651 0V738.232558a50.604651 50.604651 0 0 0 101.209302 0v-379.534884a25.302326 25.302326 0 1 1 50.604651 0V586.418605a50.604651 50.604651 0 0 0 101.209303 0v-177.116279z"  horiz-adv-x="1024" />

    
    <glyph glyph-name="lianjie" unicode="&#58895;" d="M772.608 154.11199999999997c125.44-6.656 233.472 89.6 240.64 215.552 6.656 125.44-89.6 233.472-215.552 240.64-8.704 0.512-16.896 0.512-25.6 0h-146.432c43.52-24.576 79.36-61.44 102.912-105.984h43.52c67.584 5.12 126.464-45.568 131.072-112.64 5.12-67.584-45.568-126.464-112.64-131.072-6.144-0.512-12.288-0.512-18.432 0h-221.696c-67.584 0-122.88 54.784-122.88 122.88 0 28.16 10.24 55.296 28.16 76.8H337.408c-9.216-24.576-14.336-50.688-14.336-76.8 0-126.464 101.888-228.352 228.352-228.352l221.184-1.024zM320.512 260.096H256c-67.584-5.12-126.464 45.568-131.072 112.64-5.12 67.072 45.568 126.464 112.64 131.072 6.144 0.512 12.288 0.512 18.432 0h241.152c67.584 0 122.368-54.784 122.88-121.856 0-16.384-3.584-32.256-10.24-47.104-4.608-10.752-10.752-20.992-18.432-29.696h119.808c9.216 24.576 14.336 50.688 14.336 76.8-0.512 125.44-102.4 227.84-228.352 227.84H254.976c-125.952 7.168-233.472-89.088-240.128-215.04s89.6-233.472 215.552-240.64c8.704-0.512 16.896-0.512 25.6 0h166.912c-44.032 25.088-78.848 61.44-102.4 105.984z"  horiz-adv-x="1024" />

    
    <glyph glyph-name="fuzhi" unicode="&#58894;" d="M149.504 188.928v501.76c0 30.72 25.088 55.808 55.808 55.808h501.76c30.72 0 55.808-25.088 55.808-55.808H233.472c-7.68 0-14.336-3.072-19.456-8.192-5.12-5.632-8.192-12.288-8.192-19.968v-529.92c-31.232 0.512-56.32 25.088-56.32 56.32zM316.928 634.88h501.76c30.72 0 55.808-25.088 55.808-55.808v-501.76c0-30.72-25.088-55.808-55.808-55.808h-501.76c-30.72 0-55.808 25.088-55.808 55.808v501.76C261.12 610.304 285.696 634.88 316.928 634.88z m27.648-195.072c0-15.36 12.288-27.648 27.648-27.648h390.144c15.36 0 27.648 12.288 27.648 27.648s-12.288 27.648-27.648 27.648H372.224c-15.36 0-27.648-12.288-27.648-27.648z m0-167.424c0-15.36 12.288-27.648 27.648-27.648h390.144c15.36 0 27.648 12.288 27.648 27.648s-12.288 27.648-27.648 27.648H372.224c-15.36 0.512-27.648-12.288-27.648-27.648z"  horiz-adv-x="1024" />

    
    <glyph glyph-name="table" unicode="&#58893;" d="M512 889.856C231.936 889.856 4.608 662.528 4.608 382.46400000000006s227.328-507.392 507.392-507.392 507.392 227.328 507.392 507.392S792.064 889.856 512 889.856z m0-870.4c-200.704 0-363.008 162.304-363.008 363.008S311.296 745.472 512 745.472s363.008-162.304 363.008-363.008c0-200.192-162.304-363.008-363.008-363.008zM293.888 351.744h113.152c12.288 0 22.528-10.24 22.528-22.528v-87.552c0-12.288-10.24-22.528-22.528-22.528H293.888c-12.288 0-22.528 10.24-22.528 22.528v87.552c0 12.8 10.24 22.528 22.528 22.528zM501.248 351.744h228.864c12.288 0 22.528-10.24 22.528-22.528v-87.552c0-12.288-10.24-22.528-22.528-22.528H501.248c-12.288 0-22.528 10.24-22.528 22.528v87.552c0 12.8 9.728 22.528 22.528 22.528zM293.888 546.304h113.152c12.288 0 22.528-10.24 22.528-22.528v-87.552c0-12.288-10.24-22.528-22.528-22.528H293.888c-12.288 0-22.528 10.24-22.528 22.528v87.04c0 12.8 10.24 23.04 22.528 23.04zM501.248 546.304h228.864c12.288 0 22.528-10.24 22.528-22.528v-87.552c0-12.288-10.24-22.528-22.528-22.528H501.248c-12.288 0-22.528 10.24-22.528 22.528v87.04c0 12.8 9.728 23.04 22.528 23.04z"  horiz-adv-x="1024" />

    
    <glyph glyph-name="close" unicode="&#58881;" d="M563.591 360.372l289.17 287.604c13.666 13.636 13.726 35.699 0.12 49.334-13.634 13.756-35.637 13.756-49.303 0.18l-289.2-287.724L227.646 697.34c-13.545 13.575-35.669 13.696-49.304 0.06-13.635-13.574-13.665-35.668-0.06-49.303l286.612-287.545-288.99-287.484c-13.665-13.575-13.726-35.639-0.15-49.334 6.832-6.893 15.742-10.294 24.712-10.294a34.8 34.8 0 0 1 24.621 10.173l289.08 287.545 289.29-290.193c6.833-6.893 15.743-10.295 24.713-10.295 8.91 0 17.819 3.402 24.591 10.174 13.636 13.635 13.666 35.699 0.06 49.334l-289.23 290.194z m0 0"  horiz-adv-x="1024" />

    
    <glyph glyph-name="renjijiaohuD-jiaodu" unicode="&#59111;" d="M953.8-63.700000000000045H68.3c-5.5 0-10 4.5-10 10V831.8c0 5.5 4.5 10 10 10s10-4.5 10-10v-875.5h875.5c5.5 0 10-4.5 10-10s-4.5-10-10-10zM545-63.700000000000045c-5.5 0-10 4.5-10 10 0 257.3-209.3 466.6-466.6 466.6-5.5 0-10 4.5-10 10s4.5 10 10 10c65.7 0 129.4-12.9 189.4-38.2 57.9-24.5 110-59.6 154.7-104.3 44.7-44.7 79.8-96.7 104.3-154.7 25.4-60 38.2-123.7 38.2-189.4 0-5.6-4.5-10-10-10z"  horiz-adv-x="1024" />

    
    <glyph glyph-name="xian---" unicode="&#58892;" d="M859.399469 809.625464a114.079576 114.079576 0 0 1-76.596286-199.367639l-227.072679-445.453581h-16.297082a148.303448 148.303448 0 0 1-27.161804-3.259416L285.198939 608.628117a114.079576 114.079576 0 1 1-74.966578-28.248276h9.235013l232.50504-456.318303a112.993103 112.993103 0 0 1-27.161804-73.33687A114.622812 114.622812 0 1 1 619.289125 135.469496l228.702387 447.626525h11.407957a114.622812 114.622812 0 0 1 0 229.245624z"  horiz-adv-x="1070" />

    
    <glyph glyph-name="iconfontzhizuobiaozhun0247" unicode="&#59043;" d="M0.020978 603.445968l292.532543 0 0 292.532543-292.532543 0L0.020978 603.445968 0.020978 603.445968zM365.702518 603.445968l292.53152 0 0 292.532543-292.53152 0L365.702518 603.445968 365.702518 603.445968zM731.447503 895.979534l0-292.532543 292.53152 0 0 292.532543L731.447503 895.979534 731.447503 895.979534zM0.020978 237.702006l292.532543 0L292.553521 530.296971l-292.532543 0L0.020978 237.702006 0.020978 237.702006zM365.702518 237.702006l292.53152 0L658.234037 530.296971l-292.53152 0L365.702518 237.702006 365.702518 237.702006zM731.447503 237.702006l292.53152 0L1023.979022 530.296971l-292.53152 0L731.447503 237.702006 731.447503 237.702006zM0.020978-127.978511l292.532543 0 0 292.53152-292.532543 0L0.020978-127.978511 0.020978-127.978511zM365.702518-127.978511l292.53152 0 0 292.53152-292.53152 0L365.702518-127.978511 365.702518-127.978511zM731.447503-127.978511l292.53152 0 0 292.53152-292.53152 0L731.447503-127.978511 731.447503-127.978511z"  horiz-adv-x="1024" />

    
    <glyph glyph-name="tuceng" unicode="&#59362;" d="M25.319154 599.734436 521.801738 383.982604 998.679823 599.734436 540.539498 831.696462ZM521.801738 87.042681 195.696566 228.775706 25.319154 152.05537 521.801738-63.696462 998.679823 152.05537 841.429383 231.651196ZM521.801738 299.850461 195.696566 441.583486 25.319154 364.864174 521.801738 149.111319 998.679823 364.864174 841.429383 444.458977Z"  horiz-adv-x="1024" />

    
    <glyph glyph-name="jiacu" unicode="&#58889;" d="M233.078-37.236v793.073h281.659c86.333 0 152.917-16.369 199.696-49.167s70.196-78.177 70.196-136.198c0-42.992-14.563-80.74-43.574-113.13s-65.536-54.759-109.575-67.051v-2.038c55.283-6.815 99.964-27.322 133.926-61.458 34.020-34.137 50.973-76.954 50.973-128.509 0-72.002-25.573-129.325-76.78-171.734-51.205-42.526-121.227-63.789-209.949-63.789h-296.572zM402.075 629.891v-196.083h80.39c38.623 0 68.973 9.204 91.168 27.67s33.263 44.215 33.263 77.302c0 60.759-44.389 91.109-133.169 91.109h-71.652zM402.075 306.289v-217.58h100.372c42.642 0 76.021 9.903 100.14 29.71 24 19.807 36.060 47.302 36.060 82.43 0 33.438-11.942 59.42-35.826 77.827s-57.846 27.67-101.887 27.67h-98.857z"  horiz-adv-x="1024" />

    
    <glyph glyph-name="bold" unicode="&#58999;" d="M385.692278-22.576916 390.80771-23.307658C421.012953-24.769221 443.423035-25.499963 458.03843-25.499963 545.73119-25.499963 609.551045-9.545019 649.499963 22.36542 689.448881 54.275781 709.423104 105.550927 709.423104 176.192276 709.423104 240.013154 690.66689 287.634432 653.153831 319.057684 615.640852 350.480935 559.372209 366.192325 484.346171 366.192325 462.422961 366.192325 444.153935 365.948692 429.538462 365.461504 414.922988 364.974395 400.307751 364.243574 385.692278 363.269199L385.692278-22.576916ZM386.423099 450.230745C390.320522 449.743557 395.192241 449.378225 401.038494 449.134592 406.884667 448.891038 415.410176 448.76926 426.615414 448.76926 504.5645 448.76926 561.929295 464.48065 598.711532 495.903823 635.49377 527.327074 653.884652 576.409915 653.884652 643.153841 653.884652 701.615655 636.833477 744.974178 602.730732 773.23075 568.628066 801.487321 516.256768 815.61537 445.615419 815.61537 433.922993 815.61537 415.410412 814.641073 390.076889 812.692322L385.692278 812.692322 386.423099 450.230745ZM78.769231 896 528.192276 896C638.295434 896 721.115136 876.391188 776.653824 837.17309 832.192591 797.954914 859.961502 739.37219 859.961502 661.423104 859.961502 602.474102 841.936108 553.147628 805.884613 513.442343 769.833118 473.73698 716.731156 444.628283 646.576916 426.115387 732.320926 424.653824 799.063828 402.731008 846.80767 360.346151 894.551513 317.961295 918.423079 259.500347 918.423079 184.961575 918.423079 90.448266 886.026004 17.981046 821.23075-32.442289 756.435574-82.865625 663.141612-108.076898 541.346186-108.076898L78.769231-108.076898 78.769231-35.000005 167.19234-26.961526 191.307697-3.576911 191.307697 794.42306 167.19234 815.61537 78.769231 822.923106 78.769231 896Z"  horiz-adv-x="1024" />

    
    <glyph glyph-name="chizi" unicode="&#58916;" d="M78.848 573.44l75.264 71.68 45.056-43.008-75.264-71.68 45.056-43.008 75.264 71.68 45.056-43.008-75.264-71.68 15.36-37.376 235.008 235.008-159.232 174.08c-24.576 23.552-73.728 15.872-98.304-7.68L55.808 665.6c-24.576-23.552-16.896-55.808 7.68-78.848 0.512 0 15.36-13.312 15.36-13.312z m-14.848-589.824c-5.632-15.872 9.728-30.208 26.112-24.576l275.456 87.04-210.944 200.192c-0.512 0-90.624-262.656-90.624-262.656zM958.464 607.232c23.04 22.016 23.04 55.808 0 75.264l-131.584 124.928C803.84 829.44 768 829.44 747.52 807.424l-95.744-91.136 210.944-200.192 95.744 91.136z m-336.896 80.384L184.32 273.408l210.944-200.192 437.248 414.208-210.944 200.192z m346.624-500.224l-196.096 185.856-241.152-228.864 45.056-43.008 75.264 71.68 45.056-43.008-75.264-71.68 45.056-43.008 75.264 71.68 45.056-43.008-75.264-71.68 14.848-14.336c24.576-23.552 58.88-30.208 83.456-6.656l150.528 142.848c24.576 25.088 32.768 70.144 8.192 93.184z"  horiz-adv-x="1449" />

    
    <glyph glyph-name="xiahuaxian" unicode="&#59091;" d="M703.232 828.992h127.488v-413.248c0-158.016-142.656-286.016-318.72-286.016-176 0-318.72 128-318.72 286.016V828.992h127.488v-413.248c0-39.872 18.176-78.144 51.136-107.776 36.8-32.96 86.528-51.072 140.096-51.072s103.36 18.112 140.032 51.136c33.024 29.632 51.2 67.968 51.2 107.776V828.992zM193.28 24.384h637.44v-85.376H193.28v85.376z"  horiz-adv-x="1024" />

    
    <glyph glyph-name="wenzi1" unicode="&#58913;" d="M56.888889 839.111111h682.666667v-113.777778H56.888889zM512 384h455.111111v-113.777778H512zM341.333333 725.333333h113.777778v-796.444444H341.333333zM682.666667 327.111111h113.777777v-398.222222h-113.777777z"  horiz-adv-x="1024" />

    
    <glyph glyph-name="Underline" unicode="&#58920;" d="M244.80391196-34.263368050000054v53.30830343l534.39217608 4.84906561v-53.29783023L244.80391196-34.263368050000054zM753.79871378 374.58723035q0-273.50615719-248.10878291-273.50615797-237.74037025 0-237.74037027 263.92323078V756.69989156h83.26149514v-387.93572969q0-193.57512211 162.33373288-193.5751221 156.94006385 0 156.94006386 187.3331282V756.75225695H753.79871378z"  horiz-adv-x="1024" />

    
    <glyph glyph-name="zitixieti" unicode="&#60549;" d="M768 810.208h-288a32 32 0 0 1 0-64h96.32l-230.336-704H256a32 32 0 0 1 0-64h288a32 32 0 0 1 0 64h-93.728l230.528 704H768a32 32 0 0 1 0 64z"  horiz-adv-x="1024" />

    
    <glyph glyph-name="shixinzhengfangxing" unicode="&#58890;" d="M64 832h896v-896H64z"  horiz-adv-x="1024" />

    
    <glyph glyph-name="delete" unicode="&#59033;" d="M724.09715042 713.9289006399999h212.09715041a23.56635005 23.56635005 0 0 0 23.56635006-23.56635003v-23.56635004a23.56635005 23.56635005 0 0 0-23.56635006-23.56635005h-70.69905013v-730.55685145a23.56635005 23.56635005 0 0 0-23.56635006-23.56635004H182.07109936a23.56635005 23.56635005 0 0 0-23.56635006 23.56635004V643.22985052h-70.69905013a23.56635005 23.56635005 0 0 0-23.56635006 23.56635005v23.56635004a23.56635005 23.56635005 0 0 0 23.56635006 23.56635003h212.09715041v117.83175025a23.56635005 23.56635005 0 0 0 23.56635006 23.56635004h377.06160072a23.56635005 23.56635005 0 0 0 23.56635006-23.56635004v-117.83175025z m-70.69905013 0v70.69905014H370.60189971v-70.69905014h282.79620058z m47.13270007-70.69905012H229.20379943v-683.42415135h565.59240114V643.22985052h-94.26540021z m-306.3625506-164.96445033h23.56635005a23.56635005 23.56635005 0 0 0 23.56635006-23.56635006v-282.79620055a23.56635005 23.56635005 0 0 0-23.56635006-23.56635006h-23.56635005a23.56635005 23.56635005 0 0 0-23.56635005 23.56635006V454.69905013a23.56635005 23.56635005 0 0 0 23.56635005 23.56635006z m212.09715043 0h23.56635005a23.56635005 23.56635005 0 0 0 23.56635005-23.56635006v-282.79620055a23.56635005 23.56635005 0 0 0-23.56635005-23.56635006h-23.56635005a23.56635005 23.56635005 0 0 0-23.56635006 23.56635006V454.69905013a23.56635005 23.56635005 0 0 0 23.56635006 23.56635006z"  horiz-adv-x="1024" />

    
    <glyph glyph-name="suofang" unicode="&#58909;" d="M78.848 830.4639999999999c-4.096 0-7.68-1.536-10.752-4.608-3.072-3.072-4.608-7.168-4.608-10.752V496.64c0-2.048 1.024-4.096 3.072-4.608 2.048-1.024 4.096-0.512 5.632 1.024l107.52 107.008 144.384-143.872c2.56-2.56 6.656-4.608 10.752-4.608s8.192 1.536 10.752 4.608l98.304 97.792c2.56 2.56 4.608 6.656 4.608 10.752s-1.536 8.192-4.608 10.752L300.032 719.36 404.48 823.808c1.536 1.536 2.048 3.584 1.024 5.632-1.024 2.048-2.56 3.072-4.608 3.072l-322.048-2.048z m0.512-894.464c-4.096 0-7.68 1.536-10.752 4.608-3.072 3.072-4.608 6.656-4.608 10.752v321.536c0 2.048 1.024 4.096 3.072 4.608 2.048 1.024 4.096 0.512 5.632-1.024l107.52-107.52 144.384 143.872c2.56 2.56 6.656 4.608 10.752 4.608s8.192-1.536 10.752-4.608L444.416 215.03999999999996c2.56-2.56 4.608-6.656 4.608-10.752s-1.536-8.192-4.608-10.752l-144.384-143.872 104.96-104.448c1.536-1.536 2.048-3.584 1.024-5.632-1.024-2.048-2.56-3.072-4.608-3.072l-322.048-0.512zM945.152 830.4639999999999c4.096 0 7.68-1.536 10.752-4.608 3.072-3.072 4.608-7.168 4.608-10.752V496.64c0-2.048-1.024-4.096-3.072-4.608-2.048-1.024-4.096-0.512-5.632 1.024l-107.52 107.008-144.384-143.872c-2.56-2.56-6.656-4.608-10.752-4.608s-8.192 1.536-10.752 4.608l-97.792 97.792c-2.56 2.56-4.608 6.656-4.608 10.752s1.536 8.192 4.608 10.752l144.384 143.872-104.96 104.448c-1.536 1.536-2.048 3.584-1.024 5.632 1.024 2.048 2.56 3.072 4.608 3.072l321.536-2.048z m-0.512-894.464c4.096 0 7.68 1.536 10.752 4.608 3.072 3.072 4.608 7.168 4.608 10.752v321.536c0 2.048-1.024 4.096-3.072 4.608-2.048 1.024-4.096 0.512-5.632-1.024l-107.52-107.52-144.384 143.872c-2.56 2.56-6.656 4.608-10.752 4.608s-8.192-1.536-10.752-4.608L579.584 215.03999999999996c-2.56-2.56-4.608-6.656-4.608-10.752s1.536-8.192 4.608-10.752l144.384-143.872-104.96-104.448c-1.536-1.536-2.048-3.584-1.024-5.632 1.024-2.048 2.56-3.072 4.608-3.072l322.048-0.512z"  horiz-adv-x="1024" />

    
    <glyph glyph-name="biyanjing" unicode="&#59133;" d="M317.855379 384c0 111.971781 91.202822 203.174603 203.174603 203.174603 8.126984 0 15.35097-0.902998 23.477955-1.805996l77.657848 77.657848c-32.507937 6.320988-65.015873 10.835979-100.232804 10.835979C201.368607 673.862434 9.029982 384 9.029982 384s59.597884-88.493827 166.151676-167.054674l144.479718 144.479718c-1.805996 7.223986-1.805996 14.447972-1.805997 22.574956zM866.878307 551.054674L723.301587 407.477954c0.902998-7.223986 1.805996-15.35097 1.805997-23.477954 0-111.971781-91.202822-203.174603-203.174603-203.174603-8.126984 0-15.35097 0.902998-23.477955 1.805996l-77.657848-77.657848c32.507937-6.320988 65.015873-10.835979 100.232804-10.835979 318.758377 0 512 289.862434 512 289.862434s-59.597884 88.493827-166.151675 167.054674zM190.297848 113.33530900000005l601.487126 601.478095 59.372134-59.381164L249.679012 53.95414500000004z"  horiz-adv-x="1033" />

    
    <glyph glyph-name="iconset0395" unicode="&#59154;" d="M966.4 765.866667 966.4 765.866667l-298.666667 85.333333 0 0C665.6 853.333333 663.466667 853.333333 661.333333 853.333333s-4.266667 0-6.4-2.133333l0 0L362.666667 768 70.4 853.333333l0 0C68.266667 853.333333 66.133333 853.333333 64 853.333333 51.2 853.333333 42.666667 844.8 42.666667 832l0-810.666667c0-10.666667 6.4-17.066667 14.933333-19.2l0 0 298.666667-85.333333 0 0c2.133333 0 4.266667-2.133333 6.4-2.133333s4.266667 0 6.4 2.133333l0 0L661.333333 0 953.6-85.333333l0 0c2.133333 0 4.266667-2.133333 6.4-2.133333 12.8 0 21.333333 8.533333 21.333333 21.333333L981.333333 746.666667C981.333333 757.333333 974.933333 763.733333 966.4 765.866667zM341.333333-36.266667 85.333333 38.4 85.333333 804.266667l256-72.533333L341.333333-36.266667zM640 38.4l-256-72.533333L384 729.6l256 72.533333L640 38.4zM938.666667-36.266667l-256 72.533333L682.666667 804.266667l256-72.533333L938.666667-36.266667z"  horiz-adv-x="1024" />

    
    <glyph glyph-name="ditu" unicode="&#58887;" d="M1005.689407-128L669.829349 0.273664l-314.663557-124.193586L21.39553 6.144995V891.024295l333.770262-126.581924L673.909427 886.944218l331.77998-124.890185V-128z m-954.340136 154.545384l303.816521-118.322255 314.564043 124.193586L975.735666-84.512342V741.355102L674.108455 855.000194 355.265306 732.398834 51.349271 847.636152v-821.090768zM654.802721 871.021963h29.953742v-854.627016h-29.953742zM340.238678 748.420603h29.953742v-856.318757h-29.953742z"  horiz-adv-x="1024" />

    
    <glyph glyph-name="jiantoushang" unicode="&#58912;" d="M910.222 99.556c-17.066 0-34.133 5.688-45.51 17.066L551.821 486.4c-11.378 5.689-17.066 11.378-34.133 11.378-5.689 0-22.756-5.69-28.445-11.378L159.29 122.311c-22.756-22.755-56.889-22.755-79.645-5.689-22.755 22.756-22.755 56.89-5.688 79.645L403.91 560.356c28.445 34.133 73.956 51.2 119.467 51.2s85.333-22.756 119.466-56.89l312.89-364.088c22.755-22.756 17.066-56.89-5.69-79.645-11.377-5.689-28.444-11.377-39.822-11.377z"  horiz-adv-x="1024" />

    
    <glyph glyph-name="jiantouyou" unicode="&#58884;" d="M752.86300445 359.98947554999995c0.55296 1.10705778 1.52234666 2.07530667 1.93763555 3.18236444 9.68704 20.20465779 6.50467556 45.11402667-10.65528889 61.30574222L353.06268445 794.3873422199999c-21.31171555 20.20465778-54.93987555 19.23640889-75.14453334-2.07530666s-19.23640889-54.93987555 2.07530667-75.14453334l350.95096889-331.99217777-349.56629334-336.83569778c-21.17290668-20.34460445-21.72700445-53.97162667-1.38353778-75.14453334 10.37880889-10.79409778 24.35640889-16.32824889 38.1952-16.32938666 13.28469333 0 26.57052445 4.98119111 36.81052445 14.94698666l387.48501333 373.50741334c0.69176889 0.69176889 0.96824889 1.79882667 1.79882667 2.49059555 0.55409778 0.55409778 1.10705778 0.96824889 1.79882668 1.52234667 3.18236445 3.18236445 4.70471111 7.05763554 6.78001777 10.65528889z m0 0z"  horiz-adv-x="1024" />

    
    <glyph glyph-name="jiantouzuo" unicode="&#58885;" d="M711.111111 867.555556c17.066667 0 28.444444-5.688889 39.82222201-17.066667 22.755556-22.755556 17.066667-56.888889-5.68888901-79.644445l-364.088888-329.955555c-11.377778-11.377778-17.066667-22.755556-17.066667-34.133333 0-11.377778 5.688889-22.755556 17.066667-34.133334L750.933333 59.733333000000016c22.755556-22.755556 28.444444-56.88888901 5.688889-79.644444-22.755556-22.755556-56.88888901-28.444444-79.64444401-5.688889l-364.08888899 312.888889c-34.133333 28.444444-56.888889 73.955556-56.888889 119.466667s17.066667 85.333333 51.2 119.466666l364.088889 329.955556c11.377778 5.688889 28.444444 11.377778 39.822222 11.377778z"  horiz-adv-x="1024" />

    
    <glyph glyph-name="jiantouxia" unicode="&#58886;" d="M28.444444 583.1111109999999c0 17.066667 5.688889 28.444444 17.066667 39.82222201 22.755556 22.755556 56.888889 17.066667 79.644445-5.68888901l329.955555-364.088888c11.377778-11.377778 22.755556-17.066667 34.133333-17.066667 11.377778 0 22.755556 5.688889 34.133334 17.066667L836.266667 622.933333c22.755556 22.755556 56.88888901 28.444444 79.644444 5.688889 22.755556-22.755556 28.444444-56.88888901 5.688889-79.64444401l-312.888889-364.08888899c-28.444444-34.133333-73.955556-56.888889-119.466667-56.888889s-85.333333 17.066667-119.466666 51.2l-329.955556 364.088889c-5.688889 11.377778-11.377778 28.444444-11.377778 39.822222z"  horiz-adv-x="1024" />

    
    <glyph glyph-name="wenzi" unicode="&#58911;" d="M898.844444 91.591111l-307.2 664.462222-45.511111 80.782222L443.733333 836.835556l-39.822222-80.782222L124.017778 91.591111l1.137778-2.275556c-1.137778-2.275556-1.137778-4.551111-1.137778-6.826667 0-13.653333 11.377778-25.031111 25.031111-25.031111 1.137778 0 1.137778 0 2.275556 0l0 0 93.297778 0 102.4 241.208889 303.786667 0 114.915556-241.208889 108.088889 0 0 0c1.137778 0 1.137778 0 2.275556 0 13.653333 0 25.031111 11.377778 25.031111 25.031111C899.982222 85.902222 898.844444 88.177778 898.844444 91.591111L898.844444 91.591111 898.844444 91.591111 898.844444 91.591111zM372.053333 396.515556l106.951111 252.586667 120.604444-252.586667L372.053333 396.515556zM372.053333 396.515556M120.604444 16.497778l782.791111 0 0-84.195556-782.791111 0 0 84.195556Z"  horiz-adv-x="1024" />

    
    <glyph glyph-name="baocun" unicode="&#59647;" d="M56.32 839.68v-781.312c0-71.68 58.368-130.048 130.048-130.048H967.68V839.68H56.32z m716.288-846.336H512v130.048H381.952v-130.048H251.392v260.608h521.216v-260.608z m65.024 455.68c0-32.768-32.768-65.024-65.024-65.024H251.392c-32.768 0-65.024 32.768-65.024 65.024V774.656h650.752l0.512-325.632z"  horiz-adv-x="1024" />

    
    <glyph glyph-name="guolv" unicode="&#58921;" d="M806.844729 810.504744H240.438657c-38.693974 0-69.816659-35.243342-69.816659-78.392986a84.155205 84.155205 0 0 1 20.100766-55.176601c0.804031-1.239547 1.608061-2.077079 2.37859-3.350128l262.717006-270.18779a3.584637 3.584637 0 0 0 0.804031-2.479095v-261.711967a30.318655 30.318655 0 0 1 9.581365-22.412354l157.120984-129.381927a24.288425 24.288425 0 0 1 15.946607-6.231238 22.479356 22.479356 0 0 1 11.155925 2.914611c8.777334 4.99169 14.372047 14.506052 18.358699 25.72898V392.609828c-3.986652 0.837532-3.584637 1.675064 0.804031 2.479094l189.851731 280.372179c-3.350128 0.837532-2.378591 2.077079-2.010077 2.479094 12.361971 14.506052 23.149382 34.003795 23.149382 53.903553 0.033501 54.741085-24.69044 78.660996-73.736309 78.660996z m27.538049-89.448407c-0.804031-0.837532-1.608061-1.675064-2.37859-7.035268l-195.044429-286.167899c-0.804031 3.350128-10.050383-34.439312-5.996728-40.201531l-3.618138-352.567428-131.626513 107.840607v253.001636a64.791468 64.791468 0 0 1-17.956684 44.389191L224.659556 699.515017c-1.206046 1.675064-2.378591 7.035268-3.584636 8.710331a36.415887 36.415887 0 0 0-6.365243 19.497743c0 12.026958 10.050383 30.151148 21.541321 38.559969h582.151672c11.959956-8.308316 17.956684-18.258195 17.956684-30.151149 0-6.03023 1.976575-11.323431-1.976576-15.075574z"  horiz-adv-x="1024" />

    
    <glyph glyph-name="location" unicode="&#58880;" d="M512.103132 575.879021a106.221743 106.221743 0 1 0-75.507022-31.354611A106.221743 106.221743 0 0 0 512.103132 575.879021m0 63.989002a170.850635 170.850635 0 1 1 120.939214-49.911422A169.570855 169.570855 0 0 1 512.103132 639.868023zM805.172761 771.685367a407.609942 407.609942 0 0 1-586.139257 0 431.285873 431.285873 0 0 1 0-599.576948L512.103132-128l293.069629 300.108419a431.285873 431.285873 0 0 1 0 599.576948z m-44.152411-557.344207l-248.917218-255.956007-248.917217 255.956007a365.377201 365.377201 0 0 0 0 508.712565 346.82039 346.82039 0 0 0 497.834435 0 365.377201 365.377201 0 0 0 0-508.712565z"  horiz-adv-x="1024" />

    
    <glyph glyph-name="biaoge" unicode="&#58997;" d="M847 768H177c-61.8 0-112-50.2-112-112v-544c0-61.8 50.2-112 112-112h670c61.8 0 112 50.2 112 112V656c0 61.8-50.2 112-112 112z m-670-64h670c26.5 0 48-21.5 48-48v-122.6H129V656c0 26.5 21.5 48 48 48z m228-405.1V469.4h213v-170.6H405z m213-64V64H405V234.9h213z m-277 64H129V469.4h212v-170.5z m341 170.5h213v-170.6H682V469.4zM129 112V234.9h212V64H177c-26.5 0-48 21.5-48 48z m718-48H682V234.9h213V112c0-26.5-21.5-48-48-48z"  horiz-adv-x="1024" />

    
    <glyph glyph-name="shanchu" unicode="&#58898;" d="M517.59 874.391c-100.299 0-181.703-79.514-185.167-179.34H98.603c-25.979 0-47.235-21.099-47.235-47.236 0-25.98 21.099-47.237 47.236-47.237h52.117v-528.416c0-99.196 67.233-180.285 150.37-180.285h423.55c82.98 0 150.37 80.616 150.37 180.285V600.263h47.236c25.98 0 47.236 21.1 47.236 47.237 0 25.98-21.099 47.236-47.236 47.236H702.441C699.449 794.876 617.888 874.39 517.59 874.39z m-96.677-179.34c3.464 51.172 45.19 90.85 96.834 90.85s93.37-39.835 96.362-90.85H420.913z m-119.98-714.842c-29.444 0-61.88 37.789-61.88 91.953V600.263h547.311V71.69c0-54.007-32.436-91.954-61.88-91.954H300.933v0.473z m0 0M364.387 93.733c21.57 0 39.363 21.571 39.363 48.653V419.978c0 27.082-17.635 48.654-39.363 48.654-21.572 0-39.364-21.572-39.364-48.654v-277.592c0-26.924 17.32-48.653 39.364-48.653z m142.496 0c21.571 0 39.363 21.571 39.363 48.653V419.978c0 27.082-17.635 48.654-39.363 48.654-21.571 0-39.364-21.572-39.364-48.654v-277.592c0-26.924 17.793-48.653 39.364-48.653z m149.896 0c21.571 0 39.364 21.571 39.364 48.653V419.978c0 27.082-17.635 48.654-39.364 48.654-21.571 0-39.363-21.572-39.363-48.654v-277.592c0-26.924 17.162-48.653 39.363-48.653z m0 0"  horiz-adv-x="1024" />

    
    <glyph glyph-name="set" unicode="&#58882;" d="M1123.599516 449.149093l-74.486332 11.477167c-19.861416 3.051633-40.596694 18.977234-46.135734 35.398253-5.494315 16.374573-16.063217 69.673216-4.185244 85.868889l44.608198 60.821072c11.877973 16.218035 9.985755 41.090391-4.231689 55.285472L1006.557183 730.63384c-14.215724 14.215724-39.08808 16.128585-55.285472 4.204166l-60.819352-44.582395c-16.218035-11.898616-41.978014-15.323532-57.239618-7.630802-15.282247 7.69961-60.996533 38.090364-64.048166 57.931138l-11.477167 74.479452c-3.049913 19.89238-22.001344 36.131058-42.093267 36.131058l-46.135734 0c-20.091923 0-39.046795-16.238678-42.093267-36.105255l-11.477167-74.481172c-3.051633-19.866577-18.977234-40.601855-35.396533-46.142615-16.395216-5.514958-69.674936-16.082139-85.891251-4.183524l-60.80215 44.582395c-16.216315 11.903776-41.114474 9.990915-55.304395-4.204166l-32.611531-32.633893c-14.243247-14.215724-16.128585-39.08808-4.231689-55.285472l44.609918-60.821072c11.877973-16.216315 15.302889-41.957371 7.630802-57.237898-7.69789-15.282247-38.090364-60.977611-57.931138-64.029243l-74.481172-11.477167C241.584733 446.104341 225.346056 427.146029 225.346056 407.059266l0-46.137455c0-20.090203 16.238678-39.039914 36.105255-42.093267l74.479452-11.477167c19.866577-3.049913 40.601855-18.997877 46.142615-35.398253 5.494315-16.391775 16.063217-69.693858 4.185244-85.891251l-44.609918-60.819352c-11.876253-16.223196-9.985755-41.114474 4.231689-55.285472l32.611531-32.637334c14.215724-14.212283 39.08808-16.130305 55.304395-4.228249l60.821072 44.63056c16.218035 11.857331 41.959092 15.302889 57.239618 7.630802 15.280527-7.69789 60.97589-38.090364 64.027523-57.931138l11.477167-74.481172c3.046472-19.868297 21.982422-36.110415 42.093267-36.110415l46.135734 0c20.091923 0 39.041634 16.242118 42.093267 36.110415l11.477167 74.481172c3.046472 19.866577 18.977234 40.601855 35.393092 46.116812 16.398656 5.514958 69.678377 16.061497 85.874049 4.185244l60.841715-44.63056c16.218035-11.874533 41.090391-9.961672 55.285472 4.228249l32.611531 32.637334c14.238086 14.196802 16.130305 39.0898 4.226529 55.285472l-44.603037 60.819352c-11.877973 16.219755-15.302889 41.959092-7.632523 57.218976 7.69961 15.302889 38.086924 61.020616 57.931138 64.070528l74.481172 11.477167c19.868297 3.051633 36.110415 21.980702 36.110415 42.093267l0 46.137455C1159.703051 427.146029 1143.466093 446.104341 1123.599516 449.149093L1123.599516 449.149093zM692.526273 199.25579900000002c-102.026717 0-184.7356 82.708883-184.7356 184.7356 0 102.024997 82.710603 184.73388 184.7356 184.73388 102.024997 0 184.73388-82.708883 184.73388-184.73388C877.260153 281.96468200000004 794.55127 199.25579900000002 692.526273 199.25579900000002L692.526273 199.25579900000002zM692.526273 199.25579900000002M580.976535 383.989679c0-29.203817 12.02247-58.223572 32.673458-78.87456 20.647547-20.650988 49.672463-32.670017 78.87628-32.670017 29.202096 0 58.220132 12.01903 78.87284 32.670017 20.650988 20.650988 32.668297 49.670743 32.668297 78.87456 0 29.202096-12.01731 58.227012-32.668297 78.87284-20.652708 20.652708-49.670743 32.668297-78.87284 32.668297-29.203817 0-58.228733-12.015589-78.87628-32.668297C593.000726 442.216691 580.976535 413.191775 580.976535 383.989679L580.976535 383.989679zM580.976535 383.989679"  horiz-adv-x="1449" />

    
    <glyph glyph-name="yanse" unicode="&#58883;" d="M799 391.4c-38 0-71.2 33.3-71.2 71.2 0 38 33.2 71.2 71.2 71.2s71.2-33.2 71.2-71.2c0-37.9-33.2-71.2-71.2-71.2z m-142.4 178c-38 0-71.2 33.2-71.2 71.2s33.2 71.2 71.2 71.2 71.2-33.2 71.2-71.2c0-37.9-33.2-71.2-71.2-71.2z m-267.1 0c-38 0-71.2 33.2-71.2 71.2s33.2 71.2 71.2 71.2 71.2-33.2 71.2-71.2c0-37.9-33.2-71.2-71.2-71.2z m-142.4-178c-38 0-71.2 33.3-71.2 71.2 0 38 33.2 71.2 71.2 71.2s71.2-33.2 71.2-71.2c0-37.9-33.2-71.2-71.2-71.2zM505.3 818.7C263 818.7 69.1 624.8 69.1 382.5c0-242.3 193.9-436.2 436.2-436.2 38.8 0 72.7 34 72.7 72.7 0 19.5-4.8 34-19.3 48.5-9.8 14.6-19.5 29.1-19.5 48.4 0 38.8 33.9 72.7 72.7 72.7h87.2c135.7 0 242.3 106.6 242.3 242.4 0 213.2-193.8 387.7-436.1 387.7z"  horiz-adv-x="1024" />

    
    <glyph glyph-name="gengduo1" unicode="&#58888;" d="M372.622222 384c0 39.822222 14.222222 73.955556 39.822222 99.555556 25.6 25.6 59.733333 39.822222 99.555556 39.822222s73.955556-14.222222 99.555556-39.822222c25.6-28.444444 39.822222-59.733333 39.822222-99.555556 0-36.977778-14.222222-71.111111-39.822222-96.711111-25.6-28.444444-59.733333-39.822222-102.4-39.822222-39.822222 0-71.111111 14.222222-99.555556 39.822222-22.755556 25.6-36.977778 56.888889-36.977778 96.711111zM0 384c0 39.822222 14.222222 73.955556 39.822222 99.555556 25.6 25.6 59.733333 39.822222 99.555556 39.822222s73.955556-14.222222 99.555555-39.822222c25.6-28.444444 39.822222-59.733333 39.822223-99.555556 0-36.977778-14.222222-71.111111-39.822223-96.711111-25.6-28.444444-59.733333-39.822222-102.4-39.822222-39.822222 0-71.111111 14.222222-99.555555 39.822222-22.755556 25.6-36.977778 56.888889-36.977778 96.711111z m745.244444 0c0 39.822222 14.222222 73.955556 39.822223 99.555556 25.6 25.6 59.733333 39.822222 99.555555 39.822222s73.955556-14.222222 99.555556-39.822222c25.6-28.444444 39.822222-59.733333 39.822222-99.555556 0-36.977778-14.222222-71.111111-39.822222-96.711111-25.6-28.444444-59.733333-39.822222-102.4-39.822222-39.822222 0-71.111111 14.222222-99.555556 39.822222-25.6 25.6-36.977778 56.888889-36.977778 96.711111z"  horiz-adv-x="1024" />

    
    <glyph glyph-name="gengduo-tianchong" unicode="&#58991;" d="M106.666667 384m-106.666667 0a106.666667 106.666667 0 1 1 213.333333 0 106.666667 106.666667 0 1 1-213.333333 0ZM512 384m-106.666667 0a106.666667 106.666667 0 1 1 213.333334 0 106.666667 106.666667 0 1 1-213.333334 0ZM917.333333 384m-106.666666 0a106.666667 106.666667 0 1 1 213.333333 0 106.666667 106.666667 0 1 1-213.333333 0Z"  horiz-adv-x="1024" />

    
    <glyph glyph-name="yulan1" unicode="&#58891;" d="M511.038604 627.395426c-296.667723 0-415.33645-296.6667-415.33645-296.6667s118.668727-296.674886 415.33645-296.674886c296.668747 0 415.337473 296.674886 415.337473 296.674886S807.70735 627.395426 511.038604 627.395426L511.038604 627.395426zM511.038604 152.725636c-98.271164 0-177.998997 79.671551-177.998997 178.00309 0 98.326423 79.727833 177.997973 177.998997 177.997973 98.272187 0 178.00309-79.671551 178.00309-177.997973C689.042717 232.397187 609.311815 152.725636 511.038604 152.725636L511.038604 152.725636zM511.038604 152.725636M600.04066 330.728726c0-49.140187-39.868009-89.002057-89.002057-89.002057-49.133024 0-89.001033 39.86187-89.001033 89.002057 0 49.134047 39.868009 88.99694 89.001033 88.99694C560.176744 419.729759 600.04066 379.862773 600.04066 330.728726L600.04066 330.728726zM600.04066 330.728726"  horiz-adv-x="1024" />

    
    <glyph glyph-name="kongzhizhongxin" unicode="&#60154;" d="M682.666667 213.333333v42.666667h85.333333v-42.666667h85.333333v-85.333333h-85.333333v-42.666667h-85.333333v42.666667H170.666667v85.333333h512z m-213.333334 213.333334v42.666666h85.333334v-42.666666h298.666666v-85.333334h-298.666666v-42.666666h-85.333334v42.666666H170.666667v85.333334h298.666666zM256 640V682.666667h85.333333v-42.666667h512v-85.333333H341.333333v-42.666667H256V554.666667H170.666667V640h85.333333z"  horiz-adv-x="1024" />

    
    <glyph glyph-name="yulan2" unicode="&#58914;" d="M1694.74304 576A1344 1344 0 0 1 896.02304 896 1344 1344 0 0 1 97.30304 576a238.08 238.08 0 0 1 0-384A1344 1344 0 0 1 896.02304-128a1344 1344 0 0 1 798.72 320 238.08 238.08 0 0 1 0 384zM896.02304 0a384 384 0 1 0 384 384 384 384 0 0 0-384-384zM896.02304 384m-256 0a256 256 0 1 1 512 0 256 256 0 1 1-512 0Z"  horiz-adv-x="1792" />

    
    <glyph glyph-name="book" unicode="&#59194;" d="M530.285714 640v-585.142857a18.285714 18.285714 0 0 0-21.869714-17.92l-365.714286 73.142857A18.285714 18.285714 0 0 0 128 128V713.142857a18.285714 18.285714 0 0 0 21.869714 17.92l365.714286-73.142857A18.285714 18.285714 0 0 0 530.285714 640z m329.142857 50.834286l-252.416-50.468572a18.285714 18.285714 0 1 0-7.168 35.84l274.285715 54.857143A18.285714 18.285714 0 0 0 896 713.142857v-585.142857a18.285714 18.285714 0 0 0-14.701714-17.92l-274.285715-54.857143a18.285714 18.285714 0 1 0-7.168 35.84l259.584 51.931429V690.834286z m-365.714285-65.828572l-329.142857 65.828572v-547.84l329.142857-65.828572V625.005714z"  horiz-adv-x="1024" />

    
    <glyph glyph-name="fenxiang" unicode="&#59075;" d="M210.4 370.6m-151.3 0a151.3 151.3 0 1 1 302.6 0 151.3 151.3 0 1 1-302.6 0ZM812.9 235c-33.7-0.1-64.8-11.2-90-29.9-11.8-8.8-27.4-10.5-40.7-4.4L446.3 309.2c-20.2 9.3-44.1 0.4-53.1-19.8-2.3-5.1-4.7-10-7.4-14.8-11.2-20.3-2.5-45.8 18.5-55.5l242.2-110.7c9.6-4.4 15.5-13.9 15.5-24.4v-0.2c0-83.5 67.7-151.3 151.3-151.3 83.9 0 151.8 68.3 151.2 152.3-0.6 82.9-68.7 150.4-151.6 150.2zM447.1 435.8l242.3 126.6c12.9 6.8 28.6 6.1 40.7-2.1 24-16.3 53-25.8 84.1-25.8 82.2 0 149.7 66.9 150.3 149.2 0.6 83.5-66.9 151.3-150.2 151.3-83 0-150.3-67.3-150.3-150.3v-1.4c0.1-15-8.1-28.9-21.5-35.9L402.1 521.8c-20-10.4-27.2-35.2-16.4-55 2.2-4.1 4.4-8.3 6.3-12.5 9.6-20.8 34.8-29.1 55.1-18.5z"  horiz-adv-x="1024" />

    
    <glyph glyph-name="icon_threeline_fill" unicode="&#60319;" d="M64.021106 42.705893c0 11.769045 9.455349 21.310352 21.263279 21.310352H938.713568c11.743462 0 21.263279-9.44307 21.26328-21.310352v-21.376866c0-11.769045-9.455349-21.310352-21.26328-21.310352H85.285408c-11.743462 0-21.263279 9.44307-21.263279 21.310352v21.376866z m0 351.98254c0 11.769045 9.455349 21.310352 21.263279 21.310352H938.713568c11.743462 0 21.263279-9.44307 21.26328-21.310352v-21.376866c0-11.769045-9.455349-21.310352-21.26328-21.310352H85.285408c-11.743462 0-21.263279 9.44307-21.263279 21.310352v21.376866z m0 351.983563c0 11.769045 9.455349 21.310352 21.263279 21.310352H938.713568c11.743462 0 21.263279-9.44307 21.26328-21.310352v-21.376866c0-11.769045-9.455349-21.310352-21.26328-21.310352H85.285408c-11.743462 0-21.263279 9.44307-21.263279 21.310352v21.376866z"  horiz-adv-x="1024" />

    
    <glyph glyph-name="icon_work" unicode="&#60321;" d="M176.015829 767.981325c-26.508747 0-47.998177-21.48943-47.998177-47.998178v-191.990662c0-26.508747 21.48943-47.998177 47.998177-47.998177h191.990663c26.508747 0 47.998177 21.48943 47.998177 47.998177V719.984171c0 26.508747-21.48943 47.998177-47.998177 47.998177H176.015829z m-15.999392 63.997569h223.989447c53.016471 0 95.995331-42.97886 95.995331-95.995331v-223.989447c0-53.016471-42.97886-95.995331-95.995331-95.995331H160.016437c-53.016471 0-95.995331 42.97886-95.995331 95.995331V735.983563c0 53.016471 42.97886 95.995331 95.995331 95.995331z m0-543.974225c-17.672498 0-31.998785-14.326287-31.998785-31.998785v-223.989447c0-17.672498 14.326287-31.998785 31.998785-31.998785h223.989447c17.672498 0 31.998785 14.326287 31.998785 31.998785V256.005884c0 17.672498-14.326287 31.998785-31.998785 31.998785H160.016437z m0 63.996546h223.989447c53.016471 0 95.995331-42.97886 95.995331-95.995331v-223.989447c0-53.016471-42.97886-95.995331-95.995331-95.995331H160.016437c-53.016471 0-95.995331 42.97886-95.995331 95.995331V256.005884c0 53.017494 42.97886 95.995331 95.995331 95.995331zM639.994116 767.981325c-17.672498 0-31.998785-14.326287-31.998785-31.998785v-223.989447c0-17.672498 14.326287-31.998785 31.998785-31.998785h223.989447c17.672498 0 31.998785 14.326287 31.998785 31.998785V735.983563c0 17.672498-14.326287 31.998785-31.998785 31.998785H639.994116z m0 63.997569h223.989447c53.016471 0 95.995331-42.97886 95.995331-95.995331v-223.989447c0-53.016471-42.97886-95.995331-95.995331-95.995331H639.994116c-53.016471 0-95.995331 42.97886-95.995331 95.995331V735.983563c0 53.016471 42.977837 95.995331 95.995331 95.995331z m0-543.974225c-17.672498 0-31.998785-14.326287-31.998785-31.998785v-223.989447c0-17.672498 14.326287-31.998785 31.998785-31.998785h223.989447c17.672498 0 31.998785 14.326287 31.998785 31.998785V256.005884c0 17.672498-14.326287 31.998785-31.998785 31.998785H639.994116z m0 63.996546h223.989447c53.016471 0 95.995331-42.97886 95.995331-95.995331v-223.989447c0-53.016471-42.97886-95.995331-95.995331-95.995331H639.994116c-53.016471 0-95.995331 42.97886-95.995331 95.995331V256.005884c0 53.017494 42.977837 95.995331 95.995331 95.995331z"  horiz-adv-x="1024" />

    
    <glyph glyph-name="iconfontradiobox" unicode="&#58919;" d="M512 830.016C266.08 830.016 65.984 629.92 65.984 384c0-245.952 200.064-446.016 446.016-446.016 245.952 0 446.016 200.064 446.016 446.016C958.016 629.92 757.952 830.016 512 830.016zM512 1.984C301.344 1.984 129.984 173.376 129.984 384 129.984 594.656 301.344 766.016 512 766.016c210.624 0 382.016-171.36 382.016-382.016C894.016 173.376 722.624 1.984 512 1.984zM512 544c-88.224 0-160-71.776-160-160s71.776-160 160-160 160 71.776 160 160S600.224 544 512 544z"  horiz-adv-x="1024" />

    
    <glyph glyph-name="icon-line-graph" unicode="&#58978;" d="M1007.984 785.125c0 52.133-42.297 94.429-94.429 94.429s-94.428-42.297-94.428-94.429c0-31.415 15.492-59.049 39.1-76.171l-138.14-459.358c-12.543-0.613-24.346-3.628-35.105-8.607l-313.718 319.282c4.611 11.066 7.193 23.207 7.193 35.995 0 52.132-42.296 94.429-94.428 94.429-52.133 0-94.429-42.298-94.429-94.429 0-30.523 14.692-57.357 37.132-74.604l-136.542-460.984c-49.797-2.643-89.449-43.528-89.449-93.937 0-52.133 42.296-94.43 94.429-94.43 52.133 0 94.428 42.298 94.428 94.43 0 31.413-15.492 58.955-39.037 76.169l136.049 459.172c15.369 0.461 29.57 4.674 42.235 11.528l311.259-316.823c-6.148-12.48-9.836-26.312-9.836-41.191 0-52.13 42.296-94.427 94.428-94.427 52.132 0 94.428 42.298 94.428 94.427 0 31.295-15.37 58.714-38.792 75.924l138.201 459.666c49.797 2.644 89.449 43.527 89.449 93.939z"  horiz-adv-x="1024" />

    
    <glyph glyph-name="yulan" unicode="&#59321;" d="M512.122 623.854c-247.216 0-412.027-247.216-412.027-247.216s164.811-247.216 412.027-247.216c247.216 0 412.027 247.216 412.027 247.216S759.217 623.854 512.122 623.854z m0-410.207c-90.537 0-163.962 73.424-163.962 163.962s73.424 163.962 163.962 163.962c90.537 0 163.962-73.424 163.962-163.962-0.122-90.658-73.424-163.962-163.962-163.962z m-82.406 163.476c0-21.482 8.86-42.841 24.03-58.012s36.53-24.03 58.012-24.03 42.841 8.86 58.012 24.03c15.17 15.17 24.03 36.53 24.03 58.012s-8.86 42.841-24.03 58.012c-15.17 15.17-36.53 24.03-58.012 24.03s-42.841-8.86-58.012-24.03c-15.17-15.292-24.03-36.53-24.03-58.012z"  horiz-adv-x="1024" />

    
    <glyph glyph-name="polyline" unicode="&#58984;" d="M93.090909 104.72727299999997a46.545455 46.545455 0 0 0-39.563636 71.214545l232.727272 372.363637A46.545455 46.545455 0 0 0 353.745455 560.8727269999999l331.86909-249.018182 205.73091 329.541819a46.545455 46.545455 0 1 0 79.127272-49.338182l-232.727272-372.363637a46.545455 46.545455 0 0 0-67.49091-12.567272L338.385455 456.145455l-205.73091-329.541819A46.545455 46.545455 0 0 0 93.090909 104.72727299999997z"  horiz-adv-x="1024" />

    
    <glyph glyph-name="gengduo" unicode="&#60444;" d="M224 384m-80 0a80 80 0 1 1 160 0 80 80 0 1 1-160 0ZM512 384m-80 0a80 80 0 1 1 160 0 80 80 0 1 1-160 0ZM800 384m-80 0a80 80 0 1 1 160 0 80 80 0 1 1-160 0Z"  horiz-adv-x="1024" />

    
    <glyph glyph-name="mian" unicode="&#60446;" d="M896 94.368V673.632c36.48 7.424 64 39.744 64 78.368C960 796.096 924.128 832 880 832c-38.656 0-70.944-27.52-78.368-64H222.368A80.096 80.096 0 0 1 144 832 80.096 80.096 0 0 1 64 752c0-38.624 27.52-70.944 64-78.368V94.4c-36.48-7.424-64-39.744-64-78.368A80.096 80.096 0 0 1 144-64c38.624 0 70.944 27.52 78.368 64H801.6c7.424-36.48 39.744-64 78.368-64A80 80 0 1 1 896 94.368z m-704-14.784V688.416c5.888 4.448 11.136 9.696 15.584 15.584h608.8c4.48-5.888 9.696-11.136 15.584-15.584v-608.8c-5.92-4.48-11.136-9.696-15.616-15.616H207.584A79.04 79.04 0 0 1 192 79.584z"  horiz-adv-x="1024" />

    
    <glyph glyph-name="fabusekuai" unicode="&#60486;" d="M350.912 290.624l-299.968 182.72 908.48 355.648-159.072-818.272-387.04 247.872L759.264 632.064zM416 192v-209.92l128.256 130.208z"  horiz-adv-x="1024" />

    
    <glyph glyph-name="wuxupailie" unicode="&#60544;" d="M288 736h640v-96H288zM288 432h640v-96H288zM288 128h640v-96H288zM160 688m-64 0a64 64 0 1 1 128 0 64 64 0 1 1-128 0ZM160 384m-64 0a64 64 0 1 1 128 0 64 64 0 1 1-128 0ZM160 80m-64 0a64 64 0 1 1 128 0 64 64 0 1 1-128 0Z"  horiz-adv-x="1024" />

    


  </font>
</defs>
</svg>
